<svg xmlns="http://www.w3.org/2000/svg" width="437.08" height="653.15" viewBox="0 0 437.08 653.15"><title>Asset 1</title><g id="Layer_2" data-name="Layer 2"><g id="Layer_1-2" data-name="Layer 1"><circle cx="325.13" cy="107.89" r="50" fill="#e8f3f8"/><circle cx="112.13" cy="107.89" r="50" fill="#e8f3f8"/><circle cx="218.3" cy="545.4" r="50" fill="#e8f3f8"/><rect x="200.55" y="296.55" width="35.51" height="258.79" fill="#e8f3f8"/><rect x="255.14" y="86.35" width="35.51" height="258.79" transform="translate(126.43 -99.79) rotate(26.77)" fill="#e8f3f8"/><rect x="146.14" y="86.35" width="35.51" height="258.79" transform="translate(407.4 334.55) rotate(153.23)" fill="#e8f3f8"/><circle cx="218.3" cy="296.49" r="70" fill="#e8f3f8"/><circle cx="218.3" cy="296.55" r="60" fill="#fff"/><rect x="267.22" y="81.94" width="15.26" height="258.79" transform="translate(124.66 -101.15) rotate(26.77)" fill="#fff"/><polyline points="218.3 545.4 226.85 545.4 226.85 323.43 218.3 306.49" fill="#fff"/><polyline points="218.3 545.4 209.76 545.4 209.76 323.43 218.3 306.49" fill="#fff"/><circle cx="112.13" cy="107.89" r="40" fill="#fff"/><circle cx="325.13" cy="107.89" r="40" fill="#fff"/><circle cx="218.3" cy="545.4" r="40" fill="#fff"/><rect x="154.05" y="81.96" width="15.26" height="258.45" transform="translate(401.15 326.91) rotate(153.23)" fill="#fff"/></g></g></svg>