<svg xmlns="http://www.w3.org/2000/svg" width="437.08" height="653.15" viewBox="0 0 437.08 653.15"><title>Asset 1</title><g id="Layer_2" data-name="Layer 2"><g id="Layer_1-2" data-name="Layer 1"><path d="M398.36,653.15H38.89L.17,614.43V38.86L38.89.13H398.36l38.72,38.73V614.43Z" fill="#e8f3f8"/><path d="M388.37,638.48H49.7L13.22,601.37V49.75L49.7,12.64H388.37l36.48,37.11V601.37Z" fill="#cfeaf3" opacity="0.55"/><polygon points="38.72 0 49.53 12.51 13.05 49.62 0 38.72 38.72 0" fill="#caeaf3"/><polygon points="398.19 0.13 388.2 12.64 424.68 49.75 436.91 38.85 398.19 0.13" fill="#caeaf3"/><polygon points="424.85 601.37 437.08 614.43 398.36 653.15 388.37 638.48 424.85 601.37" fill="#caeaf3"/><polygon points="49.7 638.48 38.89 653.15 0.17 614.43 13.21 601.37 49.7 638.48" fill="#caeaf3"/></g></g></svg>